# xmcd CD database file
# Copyright (C) 1993-1996 Ti Kan
#
# Track frame offsets:
#	182
#	20122
#	40742
#	58102
#	76165
#	96127
#	122795
#	146527
#	171992
#	187502
#	203405
#
# Disc length: 2998 seconds
#
# Revision: 3
# Processed by: cddbd v1.4PL0 Copyright (c) Steve Scherf et al.
# Submitted via: Gronk 1.4
#
DISCID=890bb40b
DTITLE=Charlie Rich - Pictures and Paintings
DYEAR=1900
DGENRE=blues
TTITLE0=Pictures and Paintings
TTITLE1=You Don't Know Me
TTITLE2=Don't Put No Headstone on My Grave
TTITLE3=Anywhere You Are
TTITLE4=Somebody Broke into My Heart
TTITLE5=Mood Indigo
TTITLE6=Every Time You Touch Me (I Get High)
TTITLE7=Juice Head Baby
TTITLE8=Am I Blue?
TTITLE9=Go Ahead and Cry
TTITLE10=Feel Like Going Home
EXTD=
EXTT0=
EXTT1=
EXTT2=
EXTT3=
EXTT4=
EXTT5=
EXTT6=
EXTT7=
EXTT8=
EXTT9=
EXTT10=
PLAYORDER=
